<svg version="1.1" id="Layer_1" xmlns="http://www.w3.org/2000/svg" xmlns:xlink="http://www.w3.org/1999/xlink" x="0px" y="0px"
	 width="100%" viewBox="0 0 1153 239" enable-background="new 0 0 1153 239" xml:space="preserve">
<path fill="#959595" opacity="1.000000" stroke="none" 
	d="
M1154.000000,4.000000 
	C1154.000000,82.026863 1154.000000,160.053726 1153.822998,238.696472 
	C1153.416504,239.528152 1153.201172,239.757370 1153.000000,240.000000 
	C770.306458,240.000000 387.612946,240.000000 4.459705,239.531342 
	C4.000001,164.062561 3.999886,89.062447 4.000142,14.062325 
	C4.000176,4.001148 4.001035,4.000153 14.001835,4.000149 
	C394.001221,3.999977 774.000610,4.000001 1154.000000,4.000000 
M956.621338,34.366524 
	C961.604126,36.055340 964.417786,39.765770 965.684814,44.632050 
	C967.006836,49.709064 967.994995,54.872986 969.069214,60.934639 
	C969.089539,106.294182 969.109863,151.653717 968.955872,197.743713 
	C968.039185,203.784454 964.830627,207.139572 958.418091,207.059814 
	C955.605347,207.024811 954.365662,208.330399 956.182312,211.866638 
	C956.716614,212.454315 957.246460,213.549896 957.785889,213.554642 
	C968.497437,213.648865 979.210327,213.639206 989.922241,213.561340 
	C990.651489,213.556030 991.476074,212.963745 992.083801,212.443085 
	C994.116699,210.701385 993.117493,209.691971 990.774353,208.353470 
	C989.466858,207.868927 988.195679,207.200577 986.845093,206.934418 
	C982.850220,206.147095 979.962463,204.246094 979.746277,199.555740 
	C980.164124,197.343063 980.942078,195.131058 980.946167,192.917618 
	C981.019958,153.205078 980.961121,113.492241 981.089233,73.779968 
	C981.097656,71.167877 982.381836,68.559906 983.539612,66.419632 
	C989.357544,72.772141 995.125732,79.171173 1001.004456,85.466957 
	C1011.521667,96.730225 1022.075562,107.959732 1032.669434,119.150948 
	C1045.693970,132.909683 1058.813721,146.578171 1071.814209,160.359406 
	C1077.736938,166.637894 1083.348389,173.212128 1089.319946,179.442337 
	C1099.777588,190.352921 1110.404175,201.101593 1121.256836,212.463379 
	C1125.608154,213.434616 1123.907593,209.915405 1123.910645,208.408051 
	C1124.013916,157.286865 1124.022949,106.165390 1123.897339,55.044312 
	C1123.892212,52.967419 1122.451050,50.894054 1121.664795,48.406178 
	C1121.664795,48.406178 1121.774658,48.007950 1122.506348,47.883305 
	C1126.426392,45.969543 1124.945068,43.905609 1122.665527,41.416252 
	C1122.665527,41.416252 1122.779907,41.029198 1123.490845,40.840042 
	C1127.392334,39.068081 1131.362305,37.424679 1135.135620,35.412411 
	C1135.864624,35.023651 1135.824463,33.192211 1135.743408,31.336138 
	C1134.713623,30.904984 1133.687256,30.109053 1132.653564,30.099384 
	C1122.832153,30.007540 1113.009399,30.017221 1103.187866,30.106865 
	C1102.304077,30.114933 1101.427368,30.887779 1100.410400,31.370510 
	C1101.012451,32.094139 1101.171509,32.468025 1101.431030,32.560734 
	C1102.049561,32.781693 1102.709717,32.952148 1103.363403,32.998791 
	C1108.872559,33.391918 1111.798218,36.429844 1112.413574,41.815197 
	C1112.657959,43.954227 1112.972656,46.104027 1112.974487,48.249165 
	C1113.008423,87.373474 1113.003662,126.497818 1112.987061,165.622162 
	C1112.986328,167.332932 1112.796265,169.043625 1112.627197,171.884903 
	C1105.615967,164.246399 1099.542969,157.484604 1093.313110,150.870483 
	C1075.709595,132.181152 1058.069336,113.526085 1040.365112,94.932312 
	C1038.100708,92.554169 1035.110474,90.856758 1032.902588,88.437035 
	C1024.362549,79.077591 1016.046570,69.513931 1007.542175,60.121391 
	C1005.683289,58.068478 1003.213501,56.571064 1001.338745,54.529736 
	C997.989441,50.883038 994.906555,46.993061 991.659424,43.250664 
	C989.321777,40.556492 986.794128,38.021832 984.540344,35.261665 
	C981.916138,32.048042 979.190674,29.713356 974.528503,29.907780 
	C966.051819,30.261278 957.551270,30.044819 948.480103,29.724728 
	C947.486572,29.970364 946.492981,30.216000 945.499451,30.461618 
	C945.757874,31.504499 945.671692,33.050617 946.333740,33.503845 
	C949.337463,35.560165 952.524963,37.789379 956.621338,34.366524 
M169.784424,204.645111 
	C171.987671,211.651199 174.512787,213.065613 183.606033,213.031311 
	C191.209488,213.002625 196.344101,204.937561 195.677368,199.029953 
	C194.459076,188.235291 186.247513,183.711884 173.351746,189.243271 
	C171.720459,191.791504 170.089172,194.339737 168.228622,197.304855 
	C168.228622,197.304855 168.245361,197.780319 168.101120,198.504684 
	C168.702332,200.356430 169.303543,202.208160 169.784424,204.645111 
M855.000000,114.957695 
	C855.000427,91.827446 854.987732,68.697189 855.009888,45.566963 
	C855.015808,39.352459 855.343079,39.018875 861.479126,39.010963 
	C881.946899,38.984570 902.414673,38.998253 923.214539,39.645481 
	C924.693970,43.586823 926.027039,47.593090 927.731140,51.434788 
	C928.339294,52.805664 929.846191,53.777863 931.523376,55.216465 
	C931.995178,55.187714 932.880798,55.153446 932.880493,55.130989 
	C932.780579,47.638878 932.631470,40.147228 932.405090,32.657936 
	C932.398193,32.430973 931.571838,32.228786 930.734558,31.325943 
	C928.877319,30.884382 927.020935,30.061920 925.162720,30.057741 
	C890.972229,29.980850 856.781433,30.000076 822.590759,30.009668 
	C821.432617,30.009995 820.057861,29.764410 819.184448,30.293890 
	C818.478271,30.721930 818.375977,32.146221 818.174683,33.825520 
	C820.645081,37.210220 823.269043,36.704357 826.591980,34.478046 
	C827.727417,38.874626 829.828857,43.266533 829.850159,47.668499 
	C830.085449,96.323357 830.010437,144.979767 829.986328,193.635757 
	C829.981750,202.817352 828.658325,204.596207 819.944397,206.937363 
	C817.295898,207.648911 816.528076,208.745026 818.191284,211.851334 
	C819.716614,212.563980 821.240112,213.894348 822.767517,213.898911 
	C860.752991,214.012253 898.738831,214.010162 936.724365,213.909546 
	C938.586304,213.904617 940.804016,213.275467 942.233948,212.147980 
	C945.608521,209.487030 944.556824,190.794586 940.849060,187.435669 
	C938.567383,187.117966 938.567383,187.117966 937.757263,190.074036 
	C935.024231,200.046738 931.293396,203.823303 922.855774,203.909180 
	C904.006409,204.101044 885.152954,204.071579 866.302979,203.913788 
	C859.626160,203.857910 856.122314,200.978088 854.598083,194.725616 
	C854.802185,194.471130 855.185364,194.216293 855.184875,193.962189 
	C855.143188,173.050781 855.176575,152.138138 854.923584,131.228989 
	C854.865479,126.422401 856.579041,124.862991 861.303284,124.923187 
	C877.417603,125.128502 893.536804,125.068214 909.652283,124.916458 
	C911.765015,124.896568 913.867126,123.755211 916.462646,123.592545 
	C917.956055,125.039047 919.449463,126.485542 921.522949,128.216354 
	C922.333069,127.308243 923.948242,126.263786 923.821289,125.514343 
	C923.056030,120.995712 926.623779,115.552498 920.861023,111.441368 
	C919.875183,111.579735 918.781677,111.493484 917.926270,111.903793 
	C916.210754,112.726669 914.728088,114.354424 912.965271,114.693848 
	C909.092468,115.439491 905.107117,115.903275 901.164185,115.928490 
	C885.776855,116.026901 870.388184,115.909554 855.000000,114.957695 
M763.931702,124.936028 
	C763.954468,134.236496 763.990051,143.536957 763.996948,152.837433 
	C764.007080,166.622513 764.052856,180.407898 763.974731,194.192535 
	C763.925659,202.853302 762.475281,204.557190 754.526550,207.244370 
	C753.678955,207.530914 753.496948,209.786362 753.191284,211.851318 
	C754.869141,212.565552 756.538330,213.874054 758.226318,213.898773 
	C770.300476,214.075531 782.379150,214.055603 794.454468,213.921738 
	C796.335388,213.900894 798.457642,213.376450 800.021912,212.382401 
	C802.243652,210.970520 801.143066,209.704361 798.780945,208.360367 
	C795.844482,207.266861 792.908020,206.173370 789.914917,204.352570 
	C789.578491,202.238953 788.949585,200.125504 788.948547,198.011734 
	C788.923218,148.024078 788.993225,98.036354 788.897156,48.048912 
	C788.893188,45.970856 787.451111,43.895565 786.670654,41.423744 
	C786.670654,41.423744 786.786194,41.045654 787.331909,40.808098 
	C787.490051,39.758274 787.648193,38.708454 787.938782,36.949913 
	C791.314880,34.992100 794.691040,33.034290 797.917419,31.163303 
	C793.564880,29.086514 755.573975,29.482046 751.566833,32.809921 
	C761.893433,31.712940 763.911987,37.749382 763.948547,45.080971 
	C764.056641,66.729271 763.941833,88.378654 764.038269,110.027069 
	C764.054382,113.655052 762.739014,115.048592 759.070374,115.038109 
	C729.761414,114.954308 700.451904,114.943825 671.143066,115.050041 
	C667.199158,115.064323 665.897888,113.564430 665.950745,109.740280 
	C666.105164,98.584961 665.875793,87.424286 666.034790,76.269096 
	C666.200562,64.640167 666.642273,53.015144 666.965820,41.388481 
	C667.113464,36.083668 670.229309,33.721657 675.142090,33.066177 
	C676.585510,32.873592 678.000122,32.465660 680.446228,31.935890 
	C674.776062,29.126465 635.679443,29.461372 632.154419,32.243546 
	C634.044922,32.585617 635.400635,32.868111 636.768066,33.071396 
	C640.924805,33.689354 643.447144,36.042812 643.880554,40.218533 
	C644.394287,45.167763 644.940674,50.144257 644.952087,55.110123 
	C645.039368,93.245216 645.000793,131.380600 644.999329,169.515900 
	C644.999023,177.675842 645.103149,185.837830 644.954163,193.995132 
	C644.802002,202.328247 643.022766,204.486023 635.324646,207.541595 
	C634.247009,207.969330 633.764282,209.895752 633.191284,211.851318 
	C634.869446,212.565552 636.539246,213.875153 638.227112,213.898911 
	C650.633911,214.073456 663.045044,214.054031 675.452942,213.921875 
	C677.334045,213.901825 679.456665,213.376694 681.021362,212.382767 
	C683.243530,210.971146 682.143677,209.704605 679.766968,208.349792 
	C678.437256,207.898788 676.988342,207.651047 675.802246,206.955246 
	C673.175842,205.414551 670.681458,203.648788 668.710754,201.591370 
	C668.762390,198.264984 668.850281,194.938721 668.859680,191.612213 
	C668.916504,171.622803 668.954102,151.633362 669.000732,131.643921 
	C669.018494,124.016106 669.021729,124.003845 676.913635,124.002365 
	C705.899963,123.996918 734.886230,124.000351 763.931702,124.936028 
M246.000000,71.500000 
	C246.000839,63.836952 245.487183,56.130951 246.122498,48.520870 
	C247.087723,36.958904 246.606461,32.925507 258.694183,32.712040 
	C259.090637,32.705040 259.472931,31.897837 259.923340,31.395018 
	C255.048004,29.055893 214.863785,29.504751 211.688522,32.423153 
	C213.796173,32.674034 215.311127,32.845863 216.823761,33.036068 
	C220.766113,33.531807 223.322403,35.762089 223.859131,39.634945 
	C224.493958,44.215675 224.945145,48.863445 224.952972,53.483044 
	C225.030624,99.296570 225.000229,145.110275 224.998840,190.923935 
	C224.998795,192.423203 225.198456,193.961441 224.936493,195.415085 
	C223.732895,202.093689 223.206894,206.475616 215.497742,207.357086 
	C214.267166,207.497772 213.132843,208.480270 211.954025,209.073593 
	C213.418579,210.557648 214.607925,210.959656 215.798599,210.963730 
	C229.126038,211.009247 242.454193,211.044235 255.780548,210.916214 
	C257.124573,210.903290 258.458099,209.805283 259.796509,209.210815 
	C258.433655,208.473633 257.126740,207.252869 255.697754,207.087616 
	C250.918228,206.534912 247.673477,203.781250 247.068619,199.101120 
	C246.645020,195.823456 246.081497,192.528412 246.067322,189.239044 
	C245.974686,167.748718 246.044724,146.257736 245.975342,124.767227 
	C245.966324,121.975830 247.008789,120.970627 249.783752,120.975868 
	C279.937347,121.032883 310.091095,121.033760 340.244690,120.976006 
	C343.047272,120.970642 344.031891,122.031700 344.024323,124.795677 
	C343.959106,148.618530 344.333679,172.449783 343.783173,196.260162 
	C343.597076,204.309586 341.882202,207.226273 334.657288,207.117218 
	C333.844116,207.104965 333.013641,208.238297 332.191193,208.840363 
	C333.075623,209.548721 333.954041,210.865494 334.845367,210.874268 
	C348.504669,211.009003 362.165985,211.010818 375.825623,210.899155 
	C376.821716,210.891006 377.808746,209.772385 378.799957,209.170029 
	C377.757599,208.450317 376.744598,207.162704 375.667938,207.107117 
	C370.409332,206.835663 367.315277,204.360962 366.578064,199.107849 
	C366.326202,197.313126 366.025818,195.502258 366.024719,193.698608 
	C365.994812,144.219879 366.000702,94.741127 366.001556,45.262379 
	C366.001587,44.429451 365.913544,43.581558 366.035645,42.765965 
	C367.029541,36.128204 368.890564,32.273548 375.791321,32.924137 
	C376.782532,33.017590 377.848297,32.320656 378.879547,31.989498 
	C378.787567,31.555231 378.695587,31.120962 378.603577,30.686695 
	C363.175049,30.686695 347.746521,30.686695 332.317963,30.686695 
	C332.716614,32.083935 333.264832,32.742607 333.916870,32.870090 
	C342.176758,34.484909 343.936859,36.402515 343.968719,44.982574 
	C344.049774,66.806229 343.936890,88.630707 344.055786,110.454010 
	C344.074585,113.902397 342.993866,115.069176 339.495331,115.056488 
	C309.841766,114.948914 280.187531,114.950516 250.533981,115.055283 
	C247.071793,115.067520 245.897598,113.970222 245.941452,110.482872 
	C246.100723,97.823677 246.001633,85.161224 246.000000,71.500000 
M119.537254,65.054298 
	C111.634041,76.953110 103.730820,88.851921 95.560471,101.152924 
	C94.346298,99.618629 93.537880,98.792404 92.953728,97.830040 
	C81.539604,79.025894 70.092117,60.241489 58.796581,41.366199 
	C55.641617,36.094124 56.150269,34.973663 61.314083,32.353905 
	C61.593925,32.211933 61.586151,31.503040 61.803493,30.736109 
	C47.492149,30.736109 33.400173,30.736109 18.670652,30.736109 
	C19.492409,31.927517 19.727945,32.620789 20.025257,32.648376 
	C26.679018,33.265804 30.685955,37.435303 33.914867,42.761604 
	C46.090561,62.846207 57.778931,83.253876 70.702614,102.846092 
	C77.493553,113.141090 79.551186,123.579720 79.172325,135.547073 
	C78.540092,155.517899 79.024094,175.523300 78.984566,195.514053 
	C78.969833,202.966690 76.788521,205.497711 69.553955,207.102325 
	C68.134018,207.417267 66.813286,208.179489 64.495621,209.122421 
	C74.082558,211.030579 111.065804,210.272705 114.600655,207.709396 
	C112.133385,207.399017 110.500664,207.079971 108.857277,207.009460 
	C104.848396,206.837402 102.191414,204.771301 101.243782,201.030167 
	C100.479294,198.012054 100.063301,194.824097 100.052338,191.709534 
	C99.961449,165.888367 99.934250,140.066315 100.102173,114.245911 
	C100.119225,111.623535 100.982124,108.642136 102.409119,106.450111 
	C115.949173,85.651108 129.681152,64.976883 143.393646,44.290443 
	C147.227020,38.507462 151.663391,33.464088 159.152710,32.503582 
	C159.406403,32.471043 159.567368,31.715569 159.772202,31.295738 
	C155.210861,29.131069 134.881607,29.511965 132.361542,31.756224 
	C138.567688,34.875473 139.062820,36.039169 136.272812,40.164337 
	C130.806870,48.246029 125.421608,56.382275 119.537254,65.054298 
M508.451965,30.914013 
	C493.585846,34.641331 480.406067,41.898277 469.442596,52.292477 
	C443.507965,76.880577 434.730927,107.631363 440.278198,142.390686 
	C443.586792,163.122360 453.736084,180.517746 470.241943,193.835388 
	C486.515594,206.965683 506.060608,211.256851 526.108276,212.785934 
	C552.652161,214.810501 578.963806,212.200226 604.715942,205.164474 
	C606.924255,204.561142 609.238342,203.005096 610.679016,201.224655 
	C613.278748,198.011703 615.381836,194.366348 617.435486,190.755463 
	C618.388794,189.079239 618.739197,187.060181 619.447388,184.944336 
	C611.677063,189.567520 604.908752,194.478775 597.445862,197.854218 
	C580.952393,205.314087 563.436462,207.562515 545.334717,207.112030 
	C519.092468,206.458969 497.844696,195.574234 481.684814,175.660980 
	C464.801361,154.856064 456.889496,130.482849 456.921478,103.472130 
	C456.953156,76.718979 476.198822,50.676186 500.129456,40.111259 
	C513.185425,34.347301 526.858154,32.683582 541.049377,32.896877 
	C562.461426,33.218704 580.455383,41.216682 596.011414,55.485973 
	C597.386047,56.746941 598.930176,57.823235 600.395569,58.985291 
	C600.926758,58.663471 601.458008,58.341652 601.989258,58.019829 
	C599.552307,51.640232 597.189392,45.230202 594.591675,38.916744 
	C594.238098,38.057388 592.765686,37.556313 591.719727,37.098785 
	C564.972229,25.398672 537.442627,23.736076 508.451965,30.914013 
M399.556915,210.044479 
	C403.506866,213.168793 411.553101,214.189407 415.391876,212.053055 
	C421.692444,208.546646 423.898071,203.065155 421.968628,195.708237 
	C420.393402,189.701782 416.270660,187.326065 408.786835,186.895065 
	C402.771301,186.548660 398.822693,189.286911 396.209625,194.039398 
	C393.464447,199.032257 394.847168,205.086334 399.556915,210.044479 
z"/>
<path fill="#959595" opacity="1.000000" stroke="none" 
	d="
M1154.000000,3.500000 
	C774.000610,4.000001 394.001221,3.999977 14.001835,4.000149 
	C4.001035,4.000153 4.000176,4.001148 4.000142,14.062325 
	C3.999886,89.062447 4.000001,164.062561 4.000000,239.531342 
	C0.561906,240.923126 0.976001,238.680756 0.976913,236.499985 
	C1.005138,169.000000 1.000000,101.500000 1.000000,34.000000 
	C1.000000,23.000000 1.000000,12.000000 1.000000,1.000000 
	C383.833344,1.000000 766.666687,0.996630 1149.500000,1.141223 
	C1150.788818,1.141710 1154.127441,-1.328458 1154.000000,3.500000 
z"/>
<path fill="#959595" opacity="1.000000" stroke="none" 
	d="
M1153.500000,240.000000 
	C1153.201172,239.757370 1153.416504,239.528152 1153.822998,239.156189 
	C1154.000000,239.333328 1154.000000,239.666672 1153.500000,240.000000 
z"/>
<path fill="#716F6F" opacity="1.000000" stroke="none" 
	d="
M789.971558,205.079880 
	C792.908020,206.173370 795.844482,207.266861 798.751709,209.026398 
	C796.704834,210.128067 794.691284,210.918152 792.668762,210.941818 
	C779.448975,211.096588 766.227234,211.085403 753.006165,211.128448 
	C753.496948,209.786362 753.678955,207.530914 754.526550,207.244370 
	C762.475281,204.557190 763.925659,202.853302 763.974731,194.192535 
	C764.052856,180.407898 764.007080,166.622513 763.996948,152.837433 
	C763.990051,143.536957 763.954468,134.236496 763.869934,124.080338 
	C762.011414,122.483932 760.217712,121.106155 758.417542,121.097702 
	C729.622375,120.962532 700.826111,121.073288 672.031067,120.927429 
	C667.576904,120.904861 665.867004,122.183167 665.915161,126.865723 
	C666.120728,146.837555 665.863342,166.814377 666.101318,186.785492 
	C666.161682,191.855957 667.423523,196.912094 668.133240,201.974823 
	C670.681458,203.648788 673.175842,205.414551 675.802246,206.955246 
	C676.988342,207.651047 678.437256,207.898788 679.744751,209.021118 
	C677.704468,210.128067 675.690430,210.918991 673.667664,210.941895 
	C660.114868,211.095383 646.560242,211.085403 633.006165,211.128448 
	C633.764282,209.895752 634.247009,207.969330 635.324646,207.541595 
	C643.022766,204.486023 644.802002,202.328247 644.954163,193.995132 
	C645.103149,185.837830 644.999023,177.675842 644.999329,169.515900 
	C645.000793,131.380600 645.039368,93.245216 644.952087,55.110123 
	C644.940674,50.144257 644.394287,45.167763 643.880554,40.218533 
	C643.447144,36.042812 640.924805,33.689354 636.768066,33.071396 
	C635.400635,32.868111 634.044922,32.585617 632.154419,32.243546 
	C635.679443,29.461372 674.776062,29.126465 680.446228,31.935890 
	C678.000122,32.465660 676.585510,32.873592 675.142090,33.066177 
	C670.229309,33.721657 667.113464,36.083668 666.965820,41.388481 
	C666.642273,53.015144 666.200562,64.640167 666.034790,76.269096 
	C665.875793,87.424286 666.105164,98.584961 665.950745,109.740280 
	C665.897888,113.564430 667.199158,115.064323 671.143066,115.050041 
	C700.451904,114.943825 729.761414,114.954308 759.070374,115.038109 
	C762.739014,115.048592 764.054382,113.655052 764.038269,110.027069 
	C763.941833,88.378654 764.056641,66.729271 763.948547,45.080971 
	C763.911987,37.749382 761.893433,31.712940 751.566833,32.809921 
	C755.573975,29.482046 793.564880,29.086514 797.917419,31.163303 
	C794.691040,33.034290 791.314880,34.992100 787.702148,37.621498 
	C787.239014,39.210606 787.012634,40.128132 786.786194,41.045654 
	C786.786194,41.045654 786.670654,41.423744 786.529114,42.019253 
	C786.258362,47.429516 786.020020,52.244202 786.017029,57.059040 
	C785.988708,102.317902 785.983398,147.576813 786.027954,192.835648 
	C786.032288,197.279526 785.725586,201.946182 789.971558,205.079880 
z"/>
<path fill="#1C5DA5" opacity="1.000000" stroke="none" 
	d="
M246.000000,72.000000 
	C246.001633,85.161224 246.100723,97.823677 245.941452,110.482872 
	C245.897598,113.970222 247.071793,115.067520 250.533981,115.055283 
	C280.187531,114.950516 309.841766,114.948914 339.495331,115.056488 
	C342.993866,115.069176 344.074585,113.902397 344.055786,110.454010 
	C343.936890,88.630707 344.049774,66.806229 343.968719,44.982574 
	C343.936859,36.402515 342.176758,34.484909 333.916870,32.870090 
	C333.264832,32.742607 332.716614,32.083935 332.317963,30.686695 
	C347.746521,30.686695 363.175049,30.686695 378.603577,30.686695 
	C378.695587,31.120962 378.787567,31.555231 378.879547,31.989498 
	C377.848297,32.320656 376.782532,33.017590 375.791321,32.924137 
	C368.890564,32.273548 367.029541,36.128204 366.035645,42.765965 
	C365.913544,43.581558 366.001587,44.429451 366.001556,45.262379 
	C366.000702,94.741127 365.994812,144.219879 366.024719,193.698608 
	C366.025818,195.502258 366.326202,197.313126 366.578064,199.107849 
	C367.315277,204.360962 370.409332,206.835663 375.667938,207.107117 
	C376.744598,207.162704 377.757599,208.450317 378.799957,209.170044 
	C377.808746,209.772385 376.821716,210.891006 375.825623,210.899155 
	C362.165985,211.010818 348.504669,211.009003 334.845367,210.874268 
	C333.954041,210.865494 333.075623,209.548721 332.191193,208.840363 
	C333.013641,208.238297 333.844116,207.104965 334.657288,207.117218 
	C341.882202,207.226273 343.597076,204.309586 343.783173,196.260162 
	C344.333679,172.449783 343.959106,148.618530 344.024323,124.795677 
	C344.031891,122.031700 343.047272,120.970642 340.244690,120.976006 
	C310.091095,121.033760 279.937347,121.032883 249.783752,120.975868 
	C247.008789,120.970627 245.966324,121.975830 245.975342,124.767227 
	C246.044724,146.257736 245.974686,167.748718 246.067322,189.239044 
	C246.081497,192.528412 246.645020,195.823456 247.068619,199.101120 
	C247.673477,203.781250 250.918228,206.534912 255.697754,207.087616 
	C257.126740,207.252869 258.433655,208.473633 259.796509,209.210815 
	C258.458099,209.805283 257.124573,210.903290 255.780548,210.916214 
	C242.454193,211.044235 229.126038,211.009247 215.798599,210.963730 
	C214.607925,210.959656 213.418579,210.557648 211.954025,209.073593 
	C213.132843,208.480270 214.267166,207.497772 215.497742,207.357086 
	C223.206894,206.475616 223.732895,202.093689 224.936493,195.415085 
	C225.198456,193.961441 224.998795,192.423203 224.998840,190.923935 
	C225.000229,145.110275 225.030624,99.296570 224.952972,53.483044 
	C224.945145,48.863445 224.493958,44.215675 223.859131,39.634945 
	C223.322403,35.762089 220.766113,33.531807 216.823761,33.036068 
	C215.311127,32.845863 213.796173,32.674034 211.688522,32.423153 
	C214.863785,29.504751 255.048004,29.055893 259.923340,31.395018 
	C259.472931,31.897837 259.090637,32.705040 258.694183,32.712040 
	C246.606461,32.925507 247.087723,36.958904 246.122498,48.520870 
	C245.487183,56.130951 246.000839,63.836952 246.000000,72.000000 
z"/>
<path fill="#716F6F" opacity="1.000000" stroke="none" 
	d="
M1121.774658,48.007950 
	C1121.774658,48.007950 1121.664795,48.406178 1121.526123,49.010498 
	C1121.258301,52.101639 1121.018066,54.588387 1121.016479,57.075302 
	C1120.981445,108.689575 1120.973267,160.303848 1120.959961,211.918152 
	C1110.404175,201.101593 1099.777588,190.352921 1089.319946,179.442337 
	C1083.348389,173.212128 1077.736938,166.637894 1071.814209,160.359406 
	C1058.813721,146.578171 1045.693970,132.909683 1032.669434,119.150948 
	C1022.075562,107.959732 1011.521667,96.730225 1001.004456,85.466957 
	C995.125732,79.171173 989.357544,72.772141 983.182373,65.871445 
	C981.378845,64.224983 979.932556,63.126709 978.067749,61.710629 
	C978.067749,108.121353 978.067749,153.535477 977.898743,199.243332 
	C979.148865,203.315292 980.567993,207.093536 981.525574,210.901398 
	C977.044434,210.911102 973.024780,210.891190 969.062134,210.525940 
	C970.125183,208.126587 971.257385,206.123291 972.107849,204.006821 
	C973.405457,200.777573 972.887573,198.165833 969.130249,197.013260 
	C969.109863,151.653717 969.089539,106.294182 969.443298,60.443958 
	C970.715027,59.059387 972.491211,58.014454 972.367676,57.296116 
	C971.568481,52.647800 970.786560,47.913311 969.178894,43.506237 
	C966.609131,36.461952 960.295898,32.172657 954.591797,33.062492 
	C952.490234,32.046345 950.775452,31.056278 949.060730,30.066208 
	C957.551270,30.044819 966.051819,30.261278 974.528503,29.907780 
	C979.190674,29.713356 981.916138,32.048042 984.540344,35.261665 
	C986.794128,38.021832 989.321777,40.556492 991.659424,43.250664 
	C994.906555,46.993061 997.989441,50.883038 1001.338745,54.529736 
	C1003.213501,56.571064 1005.683289,58.068478 1007.542175,60.121391 
	C1016.046570,69.513931 1024.362549,79.077591 1032.902588,88.437035 
	C1035.110474,90.856758 1038.100708,92.554169 1040.365112,94.932312 
	C1058.069336,113.526085 1075.709595,132.181152 1093.313110,150.870483 
	C1099.542969,157.484604 1105.615967,164.246399 1112.627197,171.884903 
	C1112.796265,169.043625 1112.986328,167.332932 1112.987061,165.622162 
	C1113.003662,126.497818 1113.008423,87.373474 1112.974487,48.249165 
	C1112.972656,46.104027 1112.657959,43.954227 1112.413574,41.815197 
	C1111.798218,36.429844 1108.872559,33.391918 1103.363403,32.998791 
	C1102.709717,32.952148 1102.049561,32.781693 1101.431030,32.560734 
	C1101.171509,32.468025 1101.012451,32.094139 1100.410400,31.370510 
	C1101.427368,30.887779 1102.304077,30.114933 1103.187866,30.106865 
	C1113.009399,30.017221 1122.832153,30.007540 1132.653564,30.099384 
	C1133.687256,30.109053 1134.713623,30.904984 1135.606079,31.893173 
	C1133.693481,32.706329 1131.899658,32.872986 1130.146606,33.236343 
	C1125.908936,34.114685 1122.865723,36.192829 1122.779907,41.029198 
	C1122.779907,41.029198 1122.665527,41.416252 1122.529541,41.981102 
	C1122.187378,44.366615 1121.980957,46.187283 1121.774658,48.007950 
z"/>
<path fill="#716F6F" opacity="1.000000" stroke="none" 
	d="
M818.005798,33.128571 
	C818.375977,32.146221 818.478271,30.721930 819.184448,30.293890 
	C820.057861,29.764410 821.432617,30.009995 822.590759,30.009668 
	C856.781433,30.000076 890.972229,29.980850 925.162720,30.057741 
	C927.020935,30.061920 928.877319,30.884382 930.896240,32.136276 
	C931.019592,40.275074 930.981262,47.603539 930.942871,54.932018 
	C929.846191,53.777863 928.339294,52.805664 927.731140,51.434788 
	C926.027039,47.593090 924.693970,43.586823 922.863037,39.014442 
	C920.208740,37.597958 917.912231,36.152645 915.602234,36.130783 
	C895.953613,35.944824 876.302368,36.060093 856.652405,35.973248 
	C853.190491,35.957947 851.963379,37.382648 851.973511,40.750599 
	C852.044556,64.397476 851.962280,88.045044 852.141907,111.690773 
	C852.152527,113.091805 854.004761,114.478859 855.000000,115.872421 
	C870.388184,115.909554 885.776855,116.026901 901.164185,115.928490 
	C905.107117,115.903275 909.092468,115.439491 912.965271,114.693848 
	C914.728088,114.354424 916.210754,112.726669 917.926270,111.903793 
	C918.781677,111.493484 919.875183,111.579735 920.959534,112.192139 
	C921.019653,117.939285 920.981262,122.935646 920.942871,127.932022 
	C919.449463,126.485542 917.956055,125.039047 915.844727,123.173660 
	C913.434326,122.503990 911.642517,122.041039 909.849304,122.035347 
	C892.548462,121.980370 875.245850,122.124184 857.947266,121.920143 
	C853.382568,121.866302 851.873108,123.376320 851.920227,127.944176 
	C852.115906,146.906769 851.899780,165.873627 852.099548,184.836151 
	C852.135193,188.224106 853.424072,191.598877 854.134338,194.979736 
	C856.122314,200.978088 859.626160,203.857910 866.302979,203.913788 
	C885.152954,204.071579 904.006409,204.101044 922.855774,203.909180 
	C931.293396,203.823303 935.024231,200.046738 937.757263,190.074036 
	C938.567383,187.117966 938.567383,187.117966 940.953491,188.191162 
	C941.038635,193.767700 941.014099,198.588760 941.001099,203.409836 
	C940.980713,210.987335 940.984009,210.990463 933.215820,210.999374 
	C894.812622,211.043381 856.409363,211.085602 818.006165,211.128448 
	C816.528076,208.745026 817.295898,207.648911 819.944397,206.937363 
	C828.658325,204.596207 829.981750,202.817352 829.986328,193.635757 
	C830.010437,144.979767 830.085449,96.323357 829.850159,47.668499 
	C829.828857,43.266533 827.727417,38.874626 825.927612,34.123154 
	C822.844116,33.555031 820.424927,33.341801 818.005798,33.128571 
z"/>
<path fill="#1C5DA5" opacity="1.000000" stroke="none" 
	d="
M119.770103,64.775116 
	C125.421608,56.382275 130.806870,48.246029 136.272812,40.164337 
	C139.062820,36.039169 138.567688,34.875473 132.361542,31.756224 
	C134.881607,29.511965 155.210861,29.131069 159.772202,31.295738 
	C159.567368,31.715569 159.406403,32.471043 159.152710,32.503582 
	C151.663391,33.464088 147.227020,38.507462 143.393646,44.290443 
	C129.681152,64.976883 115.949173,85.651108 102.409119,106.450111 
	C100.982124,108.642136 100.119225,111.623535 100.102173,114.245911 
	C99.934250,140.066315 99.961449,165.888367 100.052338,191.709534 
	C100.063301,194.824097 100.479294,198.012054 101.243782,201.030167 
	C102.191414,204.771301 104.848396,206.837402 108.857277,207.009460 
	C110.500664,207.079971 112.133385,207.399017 114.600655,207.709396 
	C111.065804,210.272705 74.082558,211.030579 64.495621,209.122421 
	C66.813286,208.179489 68.134018,207.417267 69.553955,207.102325 
	C76.788521,205.497711 78.969833,202.966690 78.984566,195.514053 
	C79.024094,175.523300 78.540092,155.517899 79.172325,135.547073 
	C79.551186,123.579720 77.493553,113.141090 70.702614,102.846092 
	C57.778931,83.253876 46.090561,62.846207 33.914867,42.761604 
	C30.685955,37.435303 26.679018,33.265804 20.025257,32.648376 
	C19.727945,32.620789 19.492409,31.927517 18.670652,30.736109 
	C33.400173,30.736109 47.492149,30.736109 61.803493,30.736109 
	C61.586151,31.503040 61.593925,32.211933 61.314083,32.353905 
	C56.150269,34.973663 55.641617,36.094124 58.796581,41.366199 
	C70.092117,60.241489 81.539604,79.025894 92.953728,97.830040 
	C93.537880,98.792404 94.346298,99.618629 95.560471,101.152924 
	C103.730820,88.851921 111.634041,76.953110 119.770103,64.775116 
z"/>
<path fill="#716F6F" opacity="1.000000" stroke="none" 
	d="
M508.850220,30.825352 
	C537.442627,23.736076 564.972229,25.398672 591.719727,37.098785 
	C592.765686,37.556313 594.238098,38.057388 594.591675,38.916744 
	C597.189392,45.230202 599.552307,51.640232 601.989258,58.019829 
	C601.458008,58.341652 600.926758,58.663471 600.395569,58.985291 
	C598.930176,57.823235 597.386047,56.746941 596.011414,55.485973 
	C580.455383,41.216682 562.461426,33.218704 541.049377,32.896877 
	C526.858154,32.683582 513.185425,34.347301 500.129456,40.111259 
	C476.198822,50.676186 456.953156,76.718979 456.921478,103.472130 
	C456.889496,130.482849 464.801361,154.856064 481.684814,175.660980 
	C497.844696,195.574234 519.092468,206.458969 545.334717,207.112030 
	C563.436462,207.562515 580.952393,205.314087 597.445862,197.854218 
	C604.908752,194.478775 611.677063,189.567520 619.447388,184.944336 
	C618.739197,187.060181 618.388794,189.079239 617.435486,190.755463 
	C615.381836,194.366348 613.278748,198.011703 610.679016,201.224655 
	C609.238342,203.005096 606.924255,204.561142 604.715942,205.164474 
	C578.963806,212.200226 552.652161,214.810501 526.108276,212.785934 
	C506.060608,211.256851 486.515594,206.965683 470.241943,193.835388 
	C453.736084,180.517746 443.586792,163.122360 440.278198,142.390686 
	C434.730927,107.631363 443.507965,76.880577 469.442596,52.292477 
	C480.406067,41.898277 493.585846,34.641331 508.850220,30.825352 
z"/>
<path fill="#1C5DA5" opacity="1.000000" stroke="none" 
	d="
M399.285156,209.778656 
	C394.847168,205.086334 393.464447,199.032257 396.209625,194.039398 
	C398.822693,189.286911 402.771301,186.548660 408.786835,186.895065 
	C416.270660,187.326065 420.393402,189.701782 421.968628,195.708237 
	C423.898071,203.065155 421.692444,208.546646 415.391876,212.053055 
	C411.553101,214.189407 403.506866,213.168793 399.285156,209.778656 
z"/>
<path fill="#1C5DA5" opacity="1.000000" stroke="none" 
	d="
M173.945602,188.898972 
	C186.247513,183.711884 194.459076,188.235291 195.677368,199.029953 
	C196.344101,204.937561 191.209488,213.002625 183.606033,213.031311 
	C174.512787,213.065613 171.987671,211.651199 170.035751,204.040909 
	C169.606506,201.551239 168.925934,199.665787 168.245361,197.780319 
	C168.245361,197.780319 168.228622,197.304855 168.728729,197.054749 
	C172.647156,195.270828 175.808350,193.583618 173.945602,188.898972 
z"/>
<path fill="#959595" opacity="1.000000" stroke="none" 
	d="
M668.421997,201.783096 
	C667.423523,196.912094 666.161682,191.855957 666.101318,186.785492 
	C665.863342,166.814377 666.120728,146.837555 665.915161,126.865723 
	C665.867004,122.183167 667.576904,120.904861 672.031067,120.927429 
	C700.826111,121.073288 729.622375,120.962532 758.417542,121.097702 
	C760.217712,121.106155 762.011414,122.483932 763.840332,123.612541 
	C734.886230,124.000351 705.899963,123.996918 676.913635,124.002365 
	C669.021729,124.003845 669.018494,124.016106 669.000732,131.643921 
	C668.954102,151.633362 668.916504,171.622803 668.859680,191.612213 
	C668.850281,194.938721 668.762390,198.264984 668.421997,201.783096 
z"/>
<path fill="#959595" opacity="1.000000" stroke="none" 
	d="
M1121.108398,212.190765 
	C1120.973267,160.303848 1120.981445,108.689575 1121.016479,57.075302 
	C1121.018066,54.588387 1121.258301,52.101639 1121.533203,49.216934 
	C1122.451050,50.894054 1123.892212,52.967419 1123.897339,55.044312 
	C1124.022949,106.165390 1124.013916,157.286865 1123.910645,208.408051 
	C1123.907593,209.915405 1125.608154,213.434616 1121.108398,212.190765 
z"/>
<path fill="#959595" opacity="1.000000" stroke="none" 
	d="
M789.943237,204.716217 
	C785.725586,201.946182 786.032288,197.279526 786.027954,192.835648 
	C785.983398,147.576813 785.988708,102.317902 786.017029,57.059040 
	C786.020020,52.244202 786.258362,47.429516 786.533264,42.216873 
	C787.451111,43.895565 788.893188,45.970856 788.897156,48.048912 
	C788.993225,98.036354 788.923218,148.024078 788.948547,198.011734 
	C788.949585,200.125504 789.578491,202.238953 789.943237,204.716217 
z"/>
<path fill="#959595" opacity="1.000000" stroke="none" 
	d="
M818.098755,211.489899 
	C856.409363,211.085602 894.812622,211.043381 933.215820,210.999374 
	C940.984009,210.990463 940.980713,210.987335 941.001099,203.409836 
	C941.014099,198.588760 941.038635,193.767700 941.092773,188.480850 
	C944.556824,190.794586 945.608521,209.487030 942.233948,212.147980 
	C940.804016,213.275467 938.586304,213.904617 936.724365,213.909546 
	C898.738831,214.010162 860.752991,214.012253 822.767517,213.898911 
	C821.240112,213.894348 819.716614,212.563980 818.098755,211.489899 
z"/>
<path fill="#959595" opacity="1.000000" stroke="none" 
	d="
M855.000000,115.415054 
	C854.004761,114.478859 852.152527,113.091805 852.141907,111.690773 
	C851.962280,88.045044 852.044556,64.397476 851.973511,40.750599 
	C851.963379,37.382648 853.190491,35.957947 856.652405,35.973248 
	C876.302368,36.060093 895.953613,35.944824 915.602234,36.130783 
	C917.912231,36.152645 920.208740,37.597958 922.697021,38.689991 
	C902.414673,38.998253 881.946899,38.984570 861.479126,39.010963 
	C855.343079,39.018875 855.015808,39.352459 855.009888,45.566963 
	C854.987732,68.697189 855.000427,91.827446 855.000000,115.415054 
z"/>
<path fill="#959595" opacity="1.000000" stroke="none" 
	d="
M978.067749,198.949600 
	C978.067749,153.535477 978.067749,108.121353 978.067749,61.710629 
	C979.932556,63.126709 981.378845,64.224983 982.948853,65.636642 
	C982.381836,68.559906 981.097656,71.167877 981.089233,73.779968 
	C980.961121,113.492241 981.019958,153.205078 980.946167,192.917618 
	C980.942078,195.131058 980.164124,197.343063 979.280090,199.582794 
	C978.594299,199.356934 978.345581,199.136841 978.067749,198.949600 
z"/>
<path fill="#959595" opacity="1.000000" stroke="none" 
	d="
M854.366211,194.852676 
	C853.424072,191.598877 852.135193,188.224106 852.099548,184.836151 
	C851.899780,165.873627 852.115906,146.906769 851.920227,127.944176 
	C851.873108,123.376320 853.382568,121.866302 857.947266,121.920143 
	C875.245850,122.124184 892.548462,121.980370 909.849304,122.035347 
	C911.642517,122.041039 913.434326,122.503990 915.600464,122.944031 
	C913.867126,123.755211 911.765015,124.896568 909.652283,124.916458 
	C893.536804,125.068214 877.417603,125.128502 861.303284,124.923187 
	C856.579041,124.862991 854.865479,126.422401 854.923584,131.228989 
	C855.176575,152.138138 855.143188,173.050781 855.184875,193.962189 
	C855.185364,194.216293 854.802185,194.471130 854.366211,194.852676 
z"/>
<path fill="#959595" opacity="1.000000" stroke="none" 
	d="
M633.098755,211.489883 
	C646.560242,211.085403 660.114868,211.095383 673.667664,210.941895 
	C675.690430,210.918991 677.704468,210.128067 679.927795,209.353348 
	C682.143677,209.704605 683.243530,210.971146 681.021362,212.382767 
	C679.456665,213.376694 677.334045,213.901825 675.452942,213.921875 
	C663.045044,214.054031 650.633911,214.073456 638.227112,213.898911 
	C636.539246,213.875153 634.869446,212.565552 633.098755,211.489883 
z"/>
<path fill="#959595" opacity="1.000000" stroke="none" 
	d="
M753.098755,211.489883 
	C766.227234,211.085403 779.448975,211.096588 792.668762,210.941818 
	C794.691284,210.918152 796.704834,210.128067 798.927795,209.353348 
	C801.143066,209.704361 802.243652,210.970520 800.021912,212.382401 
	C798.457642,213.376450 796.335388,213.900894 794.454468,213.921738 
	C782.379150,214.055603 770.300476,214.075531 758.226318,213.898773 
	C756.538330,213.874054 754.869141,212.565552 753.098755,211.489883 
z"/>
<path fill="#959595" opacity="1.000000" stroke="none" 
	d="
M969.005127,210.871277 
	C973.024780,210.891190 977.044434,210.911102 981.964478,210.935669 
	C985.621826,210.293564 988.378845,209.646790 991.135864,209.000000 
	C993.117493,209.691971 994.116699,210.701385 992.083801,212.443085 
	C991.476074,212.963745 990.651489,213.556030 989.922241,213.561340 
	C979.210327,213.639206 968.497437,213.648865 957.785889,213.554642 
	C957.246460,213.549896 956.716614,212.454315 956.549866,211.465240 
	C960.946655,210.999649 964.975891,210.935471 969.005127,210.871277 
z"/>
<path fill="#716F6F" opacity="1.000000" stroke="none" 
	d="
M969.062134,210.525940 
	C964.975891,210.935471 960.946655,210.999649 956.454285,211.101044 
	C954.365662,208.330399 955.605347,207.024811 958.418091,207.059814 
	C964.830627,207.139572 968.039185,203.784454 969.043091,197.378479 
	C972.887573,198.165833 973.405457,200.777573 972.107849,204.006821 
	C971.257385,206.123291 970.125183,208.126587 969.062134,210.525940 
z"/>
<path fill="#716F6F" opacity="1.000000" stroke="none" 
	d="
M954.978699,33.088570 
	C960.295898,32.172657 966.609131,36.461952 969.178894,43.506237 
	C970.786560,47.913311 971.568481,52.647800 972.367676,57.296116 
	C972.491211,58.014454 970.715027,59.059387 969.473267,59.976089 
	C967.994995,54.872986 967.006836,49.709064 965.684814,44.632050 
	C964.417786,39.765770 961.604126,36.055340 956.114136,34.092720 
	C955.363892,33.604404 955.154480,33.360954 954.978699,33.088570 
z"/>
<path fill="#959595" opacity="1.000000" stroke="none" 
	d="
M931.233154,55.074234 
	C930.981262,47.603539 931.019592,40.275074 931.092773,32.480827 
	C931.571838,32.228786 932.398193,32.430973 932.405090,32.657936 
	C932.631470,40.147228 932.780579,47.638878 932.880493,55.130989 
	C932.880798,55.153446 931.995178,55.187714 931.233154,55.074234 
z"/>
<path fill="#716F6F" opacity="1.000000" stroke="none" 
	d="
M990.955078,208.676743 
	C988.378845,209.646790 985.621826,210.293564 982.425903,210.906067 
	C980.567993,207.093536 979.148865,203.315292 977.898743,199.243332 
	C978.345581,199.136841 978.594299,199.356934 978.973877,199.802429 
	C979.962463,204.246094 982.850220,206.147095 986.845093,206.934418 
	C988.195679,207.200577 989.466858,207.868927 990.955078,208.676743 
z"/>
<path fill="#959595" opacity="1.000000" stroke="none" 
	d="
M1123.135376,40.934620 
	C1122.865723,36.192829 1125.908936,34.114685 1130.146606,33.236343 
	C1131.899658,32.872986 1133.693481,32.706329 1135.803955,32.238224 
	C1135.824463,33.192211 1135.864624,35.023651 1135.135620,35.412411 
	C1131.362305,37.424679 1127.392334,39.068081 1123.135376,40.934620 
z"/>
<path fill="#959595" opacity="1.000000" stroke="none" 
	d="
M921.232910,128.074188 
	C920.981262,122.935646 921.019653,117.939285 921.092773,112.479004 
	C926.623779,115.552498 923.056030,120.995712 923.821289,125.514343 
	C923.948242,126.263786 922.333069,127.308243 921.232910,128.074188 
z"/>
<path fill="#959595" opacity="1.000000" stroke="none" 
	d="
M954.591797,33.062492 
	C955.154480,33.360954 955.363892,33.604404 955.790161,33.977051 
	C952.524963,37.789379 949.337463,35.560165 946.333740,33.503845 
	C945.671692,33.050617 945.757874,31.504499 945.499451,30.461628 
	C946.492981,30.216000 947.486572,29.970364 948.770386,29.895468 
	C950.775452,31.056278 952.490234,32.046345 954.591797,33.062492 
z"/>
<path fill="#1C5DA5" opacity="1.000000" stroke="none" 
	d="
M173.648682,189.071121 
	C175.808350,193.583618 172.647156,195.270828 168.843384,196.846313 
	C170.089172,194.339737 171.720459,191.791504 173.648682,189.071121 
z"/>
<path fill="#959595" opacity="1.000000" stroke="none" 
	d="
M818.090210,33.477043 
	C820.424927,33.341801 822.844116,33.555031 825.618896,33.950836 
	C823.269043,36.704357 820.645081,37.210220 818.090210,33.477043 
z"/>
<path fill="#1C5DA5" opacity="1.000000" stroke="none" 
	d="
M168.173248,198.142502 
	C168.925934,199.665787 169.606506,201.551239 170.095917,203.748306 
	C169.303543,202.208160 168.702332,200.356430 168.173248,198.142502 
z"/>
<path fill="#959595" opacity="1.000000" stroke="none" 
	d="
M1122.140503,47.945629 
	C1121.980957,46.187283 1122.187378,44.366615 1122.534302,42.182846 
	C1124.945068,43.905609 1126.426392,45.969543 1122.140503,47.945629 
z"/>
<path fill="#959595" opacity="1.000000" stroke="none" 
	d="
M787.059082,40.926876 
	C787.012634,40.128132 787.239014,39.210606 787.635864,37.975857 
	C787.648193,38.708454 787.490051,39.758274 787.059082,40.926876 
z"/>
</svg>